<svg width="516" height="132" viewBox="0 0 516 132" fill="none" xmlns="http://www.w3.org/2000/svg">
<path d="M0 129.712V2.85866H31.088V122.387L13.5787 104.341H87.904V129.712H0Z" fill="#0D9488"/>
<path d="M140.326 131.856C130.201 131.856 121.328 129.772 113.705 125.603C106.201 121.434 100.305 115.597 96.0166 108.093C91.8477 100.589 89.7633 91.7751 89.7633 81.6507C89.7633 71.5262 91.8477 62.712 96.0166 55.208C100.305 47.704 106.201 41.8676 113.705 37.6987C121.328 33.5298 130.201 31.4453 140.326 31.4453C150.45 31.4453 159.265 33.5298 166.769 37.6987C174.273 41.8676 180.109 47.704 184.278 55.208C188.566 62.712 190.71 71.5262 190.71 81.6507C190.71 91.7751 188.566 100.589 184.278 108.093C180.109 115.597 174.273 121.434 166.769 125.603C159.265 129.772 150.45 131.856 140.326 131.856ZM140.326 109.165C146.281 109.165 150.867 106.783 154.083 102.019C157.418 97.2542 159.086 90.4649 159.086 81.6507C159.086 72.9556 157.418 66.2258 154.083 61.4613C150.867 56.5778 146.281 54.136 140.326 54.136C134.251 54.136 129.546 56.5778 126.211 61.4613C122.995 66.2258 121.387 72.9556 121.387 81.6507C121.387 90.4649 122.995 97.2542 126.211 102.019C129.546 106.783 134.251 109.165 140.326 109.165Z" fill="#0D9488"/>
<path d="M200.545 129.712V33.5893H228.06L229.31 63.0693L225.558 62.3547C226.392 54.7316 228.238 48.6569 231.097 44.1307C234.075 39.6044 237.767 36.3884 242.174 34.4827C246.581 32.4578 251.465 31.4453 256.825 31.4453C263.614 31.4453 269.451 32.9342 274.334 35.912C279.337 38.7707 283.149 42.9396 285.769 48.4187C288.389 53.7787 289.7 60.2702 289.7 67.8933V129.712H258.969V78.4347C258.969 73.5511 258.612 69.3822 257.897 65.928C257.182 62.4738 255.872 59.8533 253.966 58.0667C252.18 56.28 249.559 55.3867 246.105 55.3867C241.102 55.3867 237.35 57.4116 234.849 61.4613C232.467 65.392 231.276 71.0498 231.276 78.4347V129.712H200.545Z" fill="#0D9488"/>
<path d="M338.015 131.856C329.915 131.856 322.947 129.831 317.111 125.781C311.394 121.612 306.927 115.776 303.711 108.272C300.495 100.768 298.887 91.8942 298.887 81.6507C298.887 71.4071 300.495 62.5333 303.711 55.0293C306.927 47.5253 311.453 41.7484 317.29 37.6987C323.245 33.5298 330.154 31.4453 338.015 31.4453C344.923 31.4453 350.819 32.8747 355.703 35.7333C360.587 38.4729 364.279 42.344 366.78 47.3467V2.85866H397.511V129.712H367.852L367.316 115.776C364.696 120.898 360.825 124.888 355.703 127.747C350.581 130.486 344.685 131.856 338.015 131.856ZM348.735 109.165C352.666 109.165 355.941 108.153 358.562 106.128C361.301 104.103 363.326 101.066 364.636 97.016C366.066 92.9662 366.78 87.8444 366.78 81.6507C366.78 75.4569 366.066 70.3351 364.636 66.2853C363.326 62.2356 361.301 59.1982 358.562 57.1733C355.941 55.1484 352.666 54.136 348.735 54.136C343.137 54.136 338.67 56.6373 335.335 61.64C332.119 66.5236 330.511 73.1938 330.511 81.6507C330.511 89.8693 332.179 96.5396 335.514 101.661C338.849 106.664 343.256 109.165 348.735 109.165Z" fill="#0D9488"/>
<path d="M415.078 129.712V33.5893H444.558L445.63 62.712L443.307 62.3547C444.974 52.1111 447.774 44.7858 451.704 40.3787C455.635 35.8524 461.114 33.5893 468.142 33.5893H476.539V58.424H467.963C462.841 58.424 458.672 59.0196 455.456 60.2107C452.24 61.4018 449.798 63.3671 448.131 66.1067C446.582 68.7271 445.808 72.36 445.808 77.0053V129.712H415.078Z" fill="#0D9488"/>
<path d="M484.395 129.712V33.5893H515.125V129.712H484.395ZM483.859 22.8693V0H515.661V22.8693H483.859Z" fill="#0D9488"/>
</svg>
