<svg width="555" height="630" viewBox="0 0 555 630" fill="none" xmlns="http://www.w3.org/2000/svg">
  <defs>
    <linearGradient id="bodyGrad" x1="150" y1="250" x2="406" y2="250" gradientUnits="userSpaceOnUse">
      <stop offset="0" stop-color="#96ad9a"/>
      <stop offset="0.55" stop-color="#87a08c"/>
      <stop offset="1" stop-color="#728a78"/>
    </linearGradient>
    <linearGradient id="rimGrad" x1="205" y1="345" x2="350" y2="505" gradientUnits="userSpaceOnUse">
      <stop offset="0" stop-color="#f3f6f8"/>
      <stop offset="1" stop-color="#d2dbe1"/>
    </linearGradient>
    <linearGradient id="bottleGrad" x1="206" y1="176" x2="250" y2="176" gradientUnits="userSpaceOnUse">
      <stop offset="0" stop-color="#ec5a43"/>
      <stop offset="0.6" stop-color="#e8503a"/>
      <stop offset="1" stop-color="#d13f2b"/>
    </linearGradient>
    <clipPath id="drumClip">
      <circle cx="278" cy="423" r="63"/>
    </clipPath>
  </defs>

  <!-- Floor shadow -->
  <ellipse cx="278" cy="572" rx="150" ry="15" fill="#000000" opacity="0.1"/>

  <!-- ── Supplies: bottle + potted plant ─────────────────────────── -->
  <!-- Bottle (left) -->
  <rect x="217" y="148" width="22" height="17" rx="4" fill="#f4c43f"/>
  <rect x="217" y="148" width="22" height="6" rx="3" fill="#f7d264"/>
  <rect x="221" y="163" width="14" height="14" fill="#e8503a"/>
  <rect x="206" y="175" width="44" height="73" rx="10" fill="url(#bottleGrad)"/>
  <rect x="211" y="185" width="34" height="21" rx="6" fill="#3fae6a"/>
  <rect x="211" y="185" width="34" height="8" rx="4" fill="#4cbd78"/>
  <!-- Potted plant (right) -->
  <path d="M313 218 Q301 188 313 162 Q325 188 313 218 Z" fill="#4ea86a"/>
  <path d="M311 216 Q286 202 280 178 Q305 192 311 216 Z" fill="#3fae6a"/>
  <path d="M315 216 Q340 200 347 176 Q322 192 315 216 Z" fill="#5cbf7d"/>
  <path d="M288 221 L338 221 L331 250 L295 250 Z" fill="#cf7d54"/>
  <rect x="284" y="210" width="58" height="12" rx="3" fill="#b96844"/>
  <rect x="290" y="219" width="46" height="5" rx="2" fill="#6b4a3a"/>

  <!-- ── Machine body ────────────────────────────────────────────── -->
  <rect x="150" y="250" width="256" height="306" rx="18" fill="url(#bodyGrad)"/>
  <rect x="390" y="250" width="16" height="306" rx="8" fill="#728a78" opacity="0.4"/>
  <rect x="176" y="552" width="22" height="17" rx="3" fill="#c3ced5"/>
  <rect x="358" y="552" width="22" height="17" rx="3" fill="#c3ced5"/>

  <!-- ── Control panel ───────────────────────────────────────────── -->
  <rect x="173" y="286" width="54" height="21" rx="6" fill="#f4f7f8"/>
  <path d="M181 291 Q200 305 219 291" stroke="#c3ced5" stroke-width="2.5" fill="none" stroke-linecap="round"/>
  <circle cx="293" cy="297" r="11" fill="none" stroke="#b9c5cc" stroke-width="2.5"/>
  <circle cx="293" cy="297" r="3" fill="#b9c5cc"/>
  <circle cx="256" cy="290" r="2.6" fill="#b9c5cc"/>
  <circle cx="266" cy="290" r="2.6" fill="#b9c5cc"/>
  <circle cx="256" cy="299" r="2.6" fill="#b9c5cc"/>
  <circle cx="266" cy="299" r="2.6" fill="#b9c5cc"/>
  <circle cx="256" cy="308" r="2.6" fill="#b9c5cc"/>
  <circle cx="266" cy="308" r="2.6" fill="#b9c5cc"/>
  <rect x="330" y="284" width="54" height="30" rx="5" fill="#2c3b54"/>
  <path d="M338 312 L352 286 L360 286 L346 312 Z" fill="#4a5d78" opacity="0.8"/>
  <path d="M360 312 L370 286 L375 286 L365 312 Z" fill="#4a5d78" opacity="0.55"/>
  <line x1="167" y1="324" x2="389" y2="324" stroke="#d0dae0" stroke-width="2"/>

  <!-- ── Door ────────────────────────────────────────────────────── -->
  <circle cx="278" cy="423" r="85" fill="url(#rimGrad)"/>
  <circle cx="278" cy="423" r="69" fill="#cdd7dd"/>
  <circle cx="278" cy="423" r="63" fill="#2c3b54"/>

  <!-- water + bubbles: standard calm wave, standard blue -->
  <g clip-path="url(#drumClip)">
    <path d="M207.8 414 C231.2 396 254.6 439.2 279.8 426.6 C305 414 326.6 381.6 357.2 408.6 L357.2 489.6 L207.8 489.6 Z" fill="#4f8fce"/>
    <path d="M207.8 414 C231.2 396 254.6 439.2 279.8 426.6 C305 414 326.6 381.6 357.2 408.6" stroke="#6ba7dd" stroke-width="4.5" fill="none"/>
    <circle cx="230.3" cy="439.2" r="7.2" fill="#8fc0ea"/>
    <circle cx="263.6" cy="441" r="8.1" fill="#6ba7dd"/>
    <circle cx="296" cy="444.6" r="6.3" fill="#8fc0ea"/>
    <circle cx="324.8" cy="439.2" r="4.5" fill="#6ba7dd"/>
    <circle cx="248.3" cy="451.8" r="5.4" fill="#8fc0ea"/>
    <circle cx="279.8" cy="455.4" r="5.4" fill="#6ba7dd"/>
    <circle cx="311.3" cy="453.6" r="5.4" fill="#8fc0ea"/>
    <circle cx="242" cy="464.4" r="3.6" fill="#6ba7dd"/>
    <circle cx="272.6" cy="468" r="4.5" fill="#8fc0ea"/>
    <circle cx="303.2" cy="466.2" r="3.6" fill="#6ba7dd"/>
    <circle cx="260" cy="457.2" r="2.7" fill="#bcdcf5"/>
    <circle cx="290.6" cy="460.8" r="3.15" fill="#bcdcf5"/>
    <circle cx="317.6" cy="462.6" r="3.15" fill="#8fc0ea"/>
    <circle cx="222.2" cy="451.8" r="3.6" fill="#6ba7dd"/>
    <circle cx="330.2" cy="451.8" r="3.6" fill="#8fc0ea"/>
    <circle cx="252.8" cy="444.6" r="2.7" fill="#bcdcf5"/>
    <circle cx="285.2" cy="446.4" r="3.15" fill="#bcdcf5"/>
    <circle cx="308.6" cy="442.8" r="2.7" fill="#bcdcf5"/>
    <path d="M232.4 392.4 A55.8 55.8 0 0 1 295 367.2" stroke="#ffffff" stroke-width="8.1" fill="none" stroke-linecap="round" opacity="0.14"/>
    <path d="M234.8 408.6 A59.4 59.4 0 0 1 263.6 381.6" stroke="#ffffff" stroke-width="4.5" fill="none" stroke-linecap="round" opacity="0.12"/>
  </g>

  <!-- ── Lower detail ────────────────────────────────────────────── -->
  <line x1="204" y1="512" x2="352" y2="512" stroke="#d0dae0" stroke-width="2"/>
  <circle cx="322" cy="528" r="14" fill="none" stroke="#c3ced5" stroke-width="2.5"/>
  <circle cx="322" cy="528" r="3" fill="#c3ced5"/>
</svg>
